<svg width="20" height="22" viewBox="0 0 20 22" fill="none" xmlns="http://www.w3.org/2000/svg">
<path d="M10.5748 2.54016V1.58133C10.5748 1.41925 10.5104 1.26381 10.3958 1.14921C10.2812 1.0346 10.1257 0.970215 9.96367 0.970215C9.80159 0.970215 9.64615 1.0346 9.53155 1.14921C9.41694 1.26381 9.35256 1.41925 9.35256 1.58133V2.54566C4.55045 2.87933 0.744446 6.88974 0.744446 11.7753C0.744446 16.8777 4.89664 21.0299 10 21.0299C15.1034 21.0299 19.2556 16.8777 19.2556 11.7753C19.2556 6.8653 15.4114 2.83808 10.5748 2.54016ZM10 19.8077C5.57039 19.8077 1.96667 16.204 1.96667 11.7753C1.96667 7.34594 5.57039 3.74252 10 3.74252C14.4297 3.74252 18.0334 7.34594 18.0334 11.7753C18.0334 16.204 14.4297 19.8077 10 19.8077Z" fill="#31352B"/>
</svg>
