<svg width="34" height="32" viewBox="0 0 34 32" fill="none" xmlns="http://www.w3.org/2000/svg">
<path d="M31.7543 11.8812L32.7503 10.8853C33.0383 10.5974 33.1969 10.2146 33.1969 9.80742C33.1969 9.40028 33.0383 9.01745 32.7504 8.72958L31.6096 7.58879C31.3217 7.30092 30.9389 7.14234 30.5318 7.14234C30.1246 7.14234 29.7418 7.30092 29.454 7.58879L28.4579 8.58481C27.1434 7.67936 25.6517 7.01371 24.046 6.6516V5.17944H24.6521C25.4727 5.17944 26.1403 4.51179 26.1403 3.69121V1.6208C26.1403 0.800154 25.4727 0.132507 24.6521 0.132507H17.8004C16.9798 0.132507 16.3122 0.800154 16.3122 1.6208V3.69114C16.3122 4.51173 16.9798 5.17937 17.8004 5.17937H18.4064V6.65565C16.8081 7.01876 15.3231 7.68288 14.0137 8.58475L13.0177 7.58872C12.7299 7.30085 12.347 7.14227 11.94 7.14227C11.5327 7.14227 11.15 7.30085 10.8621 7.58872L9.72132 8.72951C9.12706 9.32384 9.12706 10.2909 9.72132 10.8852L9.8979 11.0618H5.19077C4.82407 11.0618 4.52671 11.3591 4.52671 11.7258C4.52671 12.0926 4.82407 12.3899 5.19077 12.3899H10.3845C9.88966 13.1868 9.48 14.0417 9.16863 14.9423H0.664061C0.297367 14.9423 0 15.2396 0 15.6064C0 15.9732 0.297367 16.2705 0.664061 16.2705H8.78898C8.60165 17.0942 8.4942 17.9477 8.47521 18.8229H4.24999C3.8833 18.8229 3.58593 19.1202 3.58593 19.487C3.58593 19.8537 3.8833 20.151 4.24999 20.151H8.51492C8.58671 21.0299 8.74801 21.8836 8.98946 22.7035H3.32031C2.95361 22.7035 2.65624 23.0008 2.65624 23.3675C2.65624 23.7343 2.95361 24.0316 3.32031 24.0316H9.46181C11.3938 28.63 15.9436 31.8675 21.2358 31.8675C28.274 31.8675 34 26.1415 34 19.1033C34 16.4246 33.1699 13.9364 31.7543 11.8812ZM30.3931 8.5279C30.4406 8.48042 30.4947 8.47046 30.5318 8.47046C30.5689 8.47046 30.623 8.48042 30.6705 8.5279L31.8113 9.66869C31.8588 9.71617 31.8688 9.77036 31.8688 9.80742C31.8688 9.84447 31.8588 9.89866 31.8112 9.94614L30.9382 10.8192C30.5031 10.3104 30.0288 9.8361 29.52 9.40101L30.3931 8.5279ZM17.6403 3.69121V1.6208C17.6403 1.53248 17.7122 1.46063 17.8004 1.46063H24.6521C24.7403 1.46063 24.8122 1.53248 24.8122 1.6208V3.69114C24.8122 3.77947 24.7403 3.85125 24.6521 3.85125H23.382H19.0704H17.8004C17.7122 3.85132 17.6403 3.77947 17.6403 3.69121ZM19.7345 5.17944H22.7179V6.42568C22.2315 6.36917 21.7372 6.33916 21.2359 6.33916C20.7279 6.33916 20.2272 6.3699 19.7346 6.42787L19.7345 5.17944ZM10.6604 9.66863L11.8012 8.52784C11.8486 8.48036 11.9028 8.4704 11.9399 8.4704C11.9769 8.4704 12.0311 8.48036 12.0786 8.52784L12.9516 9.40094C12.4428 9.83604 11.9686 10.3103 11.5335 10.8191L10.6604 9.94607C10.5839 9.86964 10.5839 9.74513 10.6604 9.66863ZM21.2358 30.5393C14.93 30.5393 9.79975 25.4091 9.79975 19.1033C9.79975 12.7974 14.93 7.66721 21.2358 7.66721C27.5417 7.66721 32.6719 12.7974 32.6719 19.1033C32.6719 25.4091 27.5417 30.5393 21.2358 30.5393Z" fill="#FF6838"/>
</svg>
